<svg width="256" height="246" viewBox="0 0 256 246" fill="none" xmlns="http://www.w3.org/2000/svg">
<path d="M0.0858307 65.7008L3.4352 47.3929C3.89481 44.8809 6.08191 43.0583 8.63092 43.0583C8.64148 43.0583 8.64677 43.0583 8.65733 43.0583C11.2195 43.0688 13.3987 44.9152 13.8372 47.4378L43.9682 221.034L197.529 221.039C201.208 221.039 204.613 219.518 207.125 216.757C210.004 213.585 211.608 208.854 211.222 204.799C210.097 195.029 203.034 187.934 194.438 187.934H66.2858C63.7104 187.934 61.5075 186.077 61.0795 183.533L31.078 6.16514C30.8191 4.63046 31.247 3.06144 32.2534 1.87279C33.2545 0.684136 34.7311 0 36.2843 0H164.336C193.548 0 222.065 23.7572 227.911 52.9399L255.271 186.906C257.733 202.591 253.913 217.336 244.515 228.433C235.286 239.329 221.754 245.33 206.409 245.33L203.963 245.322C203.916 245.322 203.871 245.325 203.818 245.325C195.646 245.333 39.3483 245.343 37.7186 245.343C31.8044 245.343 26.7645 241.106 25.7185 235.155L0.0620575 67.4441C-0.0303955 66.8683 -0.0171814 66.274 0.0858307 65.7008Z" fill="#4767ED"/>
</svg>
